<svg xmlns="http://www.w3.org/2000/svg" xmlns:xlink="http://www.w3.org/1999/xlink" version="1.1" x="0px" y="0px" viewBox="0 0 75 93.75" enable-background="new 0 0 75 75" xml:space="preserve"><path d="M71.283,20.903c-0.11-0.045-0.246-0.039-0.438,0.198c-0.176,0.218-1.385,1.771-1.46,1.835  c-0.076,0.062-0.159,0.003-0.106-0.117c0.052-0.121,1.308-2.793,1.445-3.164c0.134-0.361-0.003-0.48-0.102-0.52  c-0.123-0.048-0.371,0.009-0.492,0.32c-0.117,0.301-1.397,3.037-1.492,3.12c-0.094,0.083-0.255-0.007-0.16-0.463  c0.095-0.455,0.849-2.969,0.914-3.222c0.071-0.275-0.044-0.567-0.261-0.596s-0.365,0.079-0.463,0.475  c-0.077,0.306-0.391,1.294-0.718,2.683c-0.328,1.39-0.532,1.026-0.549,0.694c-0.017-0.333,0.334-2.35,0.381-2.568  c0.049-0.218,0.141-0.732-0.154-0.737c-0.294-0.005-0.348,0.488-0.497,1.024c-0.15,0.537-0.557,3.009-0.725,3.174  c-0.168,0.166-0.181-0.089-0.276-0.417c-0.094-0.329-0.025-0.921-0.058-1.174c-0.032-0.254,0.03-0.57-0.287-0.633  c-0.317-0.063-0.346,0.527-0.346,0.527l-0.031,2.139l0.029,0.76c0.022,0.61,0.073,1.547,0.073,1.547l0,0  c0.005,0.426,0.065,0.767-0.026,0.951c-0.196,0.393-0.786,0.918-1.967,2.817c-1.18,1.901-1.311,1.246-1.311,1.246  c-0.263-2.622-1.704-3.146-1.704-3.671c0-0.524-0.065-1.966-0.065-1.966s0.364-0.033,0.622-0.23  c0.259-0.196,1.344-1.475,1.344-1.475l0.492,0.291c0,0,0.364,0.201,0.401-0.106c0.038-0.315,0.139-0.855,0.385-1.266  c0.394-0.655,1.16-1.328,2.065-2.622c0.417-0.596,0.196-2.72-2.032-4.687c-2.229-1.966-3.802-0.918-5.113,0  c-1.311,0.918-2.408,3.425-2.408,3.425c-1.311-0.787-4.212-4.933-6.571-6.898c-2.359-1.967-3.583-1.274-4.687-0.853  c-1.311,0.501-4.031,1.278-6.293,1.9c-1.433,0.396-2.13,0.328-3.113,0.328s-3.285,0.099-4.138,0.164s-0.756,0.476-0.197,0.499  c1.133,0.045,2.877-0.131,2.877-0.131s-1.752,0.502-3.368,1.058c-0.786,0.271-0.713,0.958,0.318,0.545  c0.921-0.369,3.05-1.11,3.246-0.914s-2.613,1.795-3.662,2.581s-0.32,1.049,0.008,0.918s3.736-2.753,4.195-2.491  c0.459,0.263-2.442,2.409-3.098,3.195c-0.655,0.787-0.508,1.328,0.41,0.541c0.917-0.786,5.76-4.99,3.13-0.786  c-0.871,1.392-0.115,1.77,0.344,0.983c0.459-0.787,2.163-2.622,2.557-3.277c0.393-0.655,1.704-1.377,2.753-1.442  c1.048-0.065,6.325-0.263,6.325-0.263c0.065,0.853,0.754,2.295,1.54,3.475c0.787,1.18-0.262,2.294-1.966,2.949  c-1.705,0.655-4.588,3.277-5.703,3.999c-1.114,0.721-3.641,3.023-4.981,3.343c-1.409,0.335-3.182-0.169-5.44,2.163  c-2.031,2.098-0.394,3.539-1.639,4.522s-3.933,3.146-4.851,4.129c-0.918,0.982-2.425,2.818-3.605,3.867s-4.865,2.193-5.914,2.717  c-1.049,0.525-1.952,2.002-2.345,2.658c-0.394,0.656-1.115,1.246-2.557,2.818c-1.442,1.574-2.556,1.967-3.343,1.9  c-0.787-0.064-2.229-0.195-2.622,1.18c-0.394,1.377,0,4.326,0,5.967c0,1.639,0.393,2.949,0.655,3.932  c0.262,0.984,1.245,1.146,2.884,0.754c1.639-0.395,0.262-1.146-0.131-2c-0.394-0.852,0-1.506,0-2.424s0-2.033,0.787-2.885  s1.966-2.229,3.605-3.408s0.917-0.656,3.999-2.229c3.081-1.574,2.854-2.744,5.047-3.803c0.259-0.125,0.389,0.035,0.762-0.131  c0.431-0.191,1.111-0.711,1.464-0.82c2.649-0.816,5.1-2.398,6.295-3.178c1.508-0.982,4.916-3.67,4.916-3.67s0.787-1.049,1.442-0.525  c0.655,0.525,1.377,0.787,2.884,2.359c1.508,1.574,4.523,3.213,4.523,3.213c-3.507,0.262-3.343,1.639-4.13,2.031  c-0.786,0.395-2.49,0.525-3.867,1.049c-1.376,0.525-4.063,0.852-4.653,0.852c-0.591,0-2.622-0.721-2.491,1.639  c0.131,2.361,0.786,1.312,1.9,3.475c1.55,3.008,1.836,3.803,2.95,4.852c1.114,1.047,1.791,0.141,1.791,0.141s0.242-0.34,0.078-0.662  c-0.393-0.775-1.121-2.344-1.214-3.084c-0.131-1.049,0.263-2.688,0.394-3.344c0.131-0.654,2.097-0.918,2.818-1.113  c0.721-0.197,5.178-0.197,6.949-0.395c1.772-0.195,5.505-1.311,6.881-1.9c1.377-0.59,0.766-1.561,0.541-2.957  c-0.245-1.525-2.917-4.887-3.26-5.76c-0.591-1.508-1.342-2.75-2.688-4.098c-2.229-2.228-2.551-2.253-1.868-2.654  c1.009-0.592,3.474-1.114,4.654-1.376c1.18-0.263,4.26-1.573,5.506-1.9c1.245-0.328,3.604-2.033,3.604-2.033s0.59,1.836,1.049,2.688  c0.459,0.853,2.032,2.818,2.36,4.064c0.327,1.245,1.376,1.442,2.097,1.245c0.721-0.196,2.819-3.408,3.54-4.522  s1.311-3.54,1.573-3.998c0.157-0.276,0.396-0.438,0.626-0.714c0.002-0.001,0.004-0.001,0.005-0.003  c0.472-0.37,1.257-2.205,1.323-2.435c0.065-0.229,0.231-0.608,0.413-0.811c0.281-0.312,1.276-1.713,1.392-1.858  C71.353,21.266,71.446,20.972,71.283,20.903z"/><text x="0" y="90" fill="#000000" font-size="5px" font-weight="bold" font-family="'Helvetica Neue', Helvetica, Arial-Unicode, Arial, Sans-serif">Created by Stephen Borengasser</text><text x="0" y="95" fill="#000000" font-size="5px" font-weight="bold" font-family="'Helvetica Neue', Helvetica, Arial-Unicode, Arial, Sans-serif">from the Noun Project</text></svg>